<?xml version="1.0" standalone="no"?>
<!DOCTYPE svg PUBLIC "-//W3C//DTD SVG 20010904//EN"
 "http://www.w3.org/TR/2001/REC-SVG-20010904/DTD/svg10.dtd">
<svg version="1.0" xmlns="http://www.w3.org/2000/svg"
 width="512.000000pt" height="512.000000pt" viewBox="0 0 512.000000 512.000000"
 preserveAspectRatio="xMidYMid meet">

<g transform="translate(0.000000,512.000000) scale(0.100000,-0.100000)"
fill="#000000" stroke="none">
<path d="M2435 4677 c-94 -32 -174 -87 -231 -160 -18 -23 -128 -245 -244 -492
-117 -248 -215 -453 -218 -457 -4 -3 -228 -42 -499 -86 -435 -70 -500 -83
-558 -110 -189 -89 -295 -317 -241 -519 29 -109 70 -162 332 -431 138 -141
298 -307 356 -367 l105 -111 -83 -504 c-46 -278 -83 -533 -84 -566 -1 -169 99
-322 259 -402 73 -36 77 -37 190 -37 143 0 111 -14 642 281 383 212 392 217
418 202 273 -157 812 -448 861 -465 118 -41 261 -25 372 40 65 38 145 128 180
204 54 114 52 151 -37 737 l-78 508 95 96 c435 444 625 644 650 682 139 217
58 524 -170 643 -79 42 -69 40 -647 128 -225 34 -415 66 -421 70 -6 5 -107
214 -225 466 -200 427 -218 461 -273 520 -42 45 -79 73 -132 100 -69 33 -83
37 -177 40 -67 2 -116 -2 -142 -10z"/>
</g>
</svg>
